<?xml version="1.0" encoding="utf-8"?>
<!-- Generator: Adobe Illustrator 27.5.0, SVG Export Plug-In . SVG Version: 6.00 Build 0)  -->
<svg version="1.1" xmlns="http://www.w3.org/2000/svg" xmlns:xlink="http://www.w3.org/1999/xlink" x="0px" y="0px"
	 viewBox="0 0 500 500" style="enable-background:new 0 0 500 500;" xml:space="preserve">
<g id="BACKGROUND">
	<rect style="fill:#D1E4E8;" width="500" height="500"/>
</g>
<g id="OBJECTS">
	<g>
		<g>
			<path style="opacity:0.61;fill:#FFFFFF;" d="M170.406,353.936H79.169c-6.799,0-12.31-5.512-12.31-12.31v-62.439
				c0-6.799,5.511-12.31,12.31-12.31h91.237c6.799,0,12.31,5.512,12.31,12.31v62.439
				C182.716,348.424,177.205,353.936,170.406,353.936z"/>
			<g style="opacity:0.9608;enable-background:new    ;">
				<path style="fill:#782F9B;" d="M111.615,286.77l-2.306,4.342c-1.388-5.201-2.982-8.249-4.355-11.651l-2.19,4.767
					c-2.592-4.367-4.615-7.483-4.615-7.483s-4.429,7.772-8.256,15.973l-2.723-2.644c-3.128,7.749-3.406,18.338-2.383,22.117
					c0.002,0.007,0.004,0.013,0.006,0.02c1.23,5.402,5.44,9.664,10.808,10.981c-2.31-1.078-4.046-3.178-4.625-5.719
					c-0.001-0.004-0.002-0.007-0.004-0.011c-0.583-2.153-0.425-8.185,1.358-12.599l1.551,1.506
					c2.18-4.672,4.703-11.459,4.703-11.459s1.153,4.134,2.629,6.622l1.324-3.681c0.782,1.938,1.696,3.85,2.487,6.813l1.313-2.474
					c1.782,4.414,1.534,13.119,0.951,15.272c-0.003,0.01-0.006,0.019-0.009,0.029c-0.58,2.52-2.299,4.603-4.585,5.683
					c5.318-1.338,9.484-5.571,10.717-10.931c0.005-0.018,0.011-0.033,0.016-0.051C114.452,308.412,114.743,294.519,111.615,286.77z"
					/>
				
					<text transform="matrix(1 0 0 1 86.1753 342.4072)" style="fill:#782F9B; font-family:'Montserrat-Bold'; font-size:16.7211px;">713</text>
				
					<text transform="matrix(1 0 0 1 114.1333 342.4072)" style="fill:#782F9B; font-family:'Montserrat-Bold'; font-size:16.7211px;">Kcal</text>
			</g>
		</g>
		<path style="opacity:0.77;fill:#FFFFFF;" d="M222.01,118.614L67.244,118.46c-6.799,0-12.31-5.511-12.31-12.31V70.209
			c0-6.799,5.512-12.31,12.31-12.31l154.766,0.154c6.799,0,12.31,5.512,12.31,12.31v35.941
			C234.32,113.103,228.809,118.614,222.01,118.614z"/>
		<g>
			<path style="opacity:0.61;fill:#FFFFFF;" d="M420.878,329.654H315.372c-6.799,0-12.31-5.512-12.31-12.31v-35.941
				c0-6.799,5.512-12.31,12.31-12.31h105.506c6.799,0,12.31,5.512,12.31,12.31v35.941
				C433.188,324.142,427.677,329.654,420.878,329.654z"/>
			<path style="opacity:0.61;fill:#FFFFFF;" d="M411.764,329.654H306.258c-6.799,0-12.31-5.512-12.31-12.31v-35.941
				c0-6.799,5.512-12.31,12.31-12.31h105.506c6.799,0,12.31,5.512,12.31,12.31v35.941
				C424.074,324.142,418.563,329.654,411.764,329.654z"/>
			<path style="fill:#62B155;" d="M404.547,291.554c-0.579,0-1.144,0.059-1.691,0.169c-1.239-3.3-4.414-5.652-8.146-5.652
				c-4.235,0-7.76,3.024-8.543,7.029c-0.832-0.397-1.76-0.626-2.744-0.626c-3.36,0-6.108,2.593-6.368,5.886
				c-0.009,0-0.017-0.003-0.026-0.003c-2.819,0-5.105,2.286-5.105,5.105c0,2.819,2.285,5.105,5.105,5.105h27.518
				c4.698,0,8.507-3.809,8.507-8.507C413.054,295.363,409.245,291.554,404.547,291.554z"/>
		</g>
		<g>
			<path style="fill:#5DA54E;" d="M435.713,134.074h-145.68c-6.799,0-12.31-5.512-12.31-12.31V85.823
				c0-6.799,5.511-12.31,12.31-12.31h145.68c6.799,0,12.31,5.512,12.31,12.31v35.941
				C448.023,128.563,442.512,134.074,435.713,134.074z"/>
			<path style="fill:#62B155;" d="M426.599,134.074H280.92c-6.799,0-12.31-5.512-12.31-12.31V85.823
				c0-6.799,5.512-12.31,12.31-12.31h145.68c6.799,0,12.31,5.512,12.31,12.31v35.941
				C438.909,128.563,433.398,134.074,426.599,134.074z"/>
			<g>
				<g>
					
						<path style="fill:none;stroke:#FFFFFF;stroke-width:2.1461;stroke-linecap:round;stroke-linejoin:round;stroke-miterlimit:10;" d="
						M378.547,108.942c1.599,1.392,2.61,3.443,2.61,5.73c0,4.194-3.4,7.594-7.594,7.594c-4.194,0-7.594-3.4-7.594-7.594
						c0-2.287,1.011-4.338,2.61-5.73l-0.024-0.028V88.348c0-2.766,2.242-5.008,5.008-5.008c2.766,0,5.008,2.242,5.008,5.008v20.567"
						/>
					<path style="fill:#FFFFFF;" d="M377.782,114.673c0,2.329-1.888,4.218-4.218,4.218s-4.218-1.889-4.218-4.218
						c0-2.33,1.888-4.218,4.218-4.218S377.782,112.343,377.782,114.673z"/>
					
						<line style="fill:none;stroke:#FFFFFF;stroke-width:3.5768;stroke-linecap:round;stroke-linejoin:round;stroke-miterlimit:10;" x1="373.564" y1="95.859" x2="373.564" y2="113.624"/>
					
						<line style="fill:none;stroke:#FFFFFF;stroke-width:1.4307;stroke-linecap:round;stroke-linejoin:round;stroke-miterlimit:10;" x1="382.101" y1="94.97" x2="385.32" y2="94.97"/>
					
						<line style="fill:none;stroke:#FFFFFF;stroke-width:1.4307;stroke-linecap:round;stroke-linejoin:round;stroke-miterlimit:10;" x1="382.101" y1="97.176" x2="385.32" y2="97.176"/>
					
						<line style="fill:none;stroke:#FFFFFF;stroke-width:1.4307;stroke-linecap:round;stroke-linejoin:round;stroke-miterlimit:10;" x1="382.101" y1="99.382" x2="385.32" y2="99.382"/>
					
						<line style="fill:none;stroke:#FFFFFF;stroke-width:1.4307;stroke-linecap:round;stroke-linejoin:round;stroke-miterlimit:10;" x1="382.101" y1="101.588" x2="385.32" y2="101.588"/>
					
						<line style="fill:none;stroke:#FFFFFF;stroke-width:1.4307;stroke-linecap:round;stroke-linejoin:round;stroke-miterlimit:10;" x1="382.101" y1="103.793" x2="385.32" y2="103.793"/>
					
						<line style="fill:none;stroke:#FFFFFF;stroke-width:1.4307;stroke-linecap:round;stroke-linejoin:round;stroke-miterlimit:10;" x1="382.101" y1="105.999" x2="385.32" y2="105.999"/>
				</g>
				<g>
					
						<text transform="matrix(1 0 0 1 392.1396 122.2661)" style="fill:#FFFFFF; font-family:'Montserrat-Bold'; font-size:16.7211px;">37ยบ</text>
				</g>
			</g>
		</g>
		<g>
			<path style="opacity:0.42;fill:#FFFFFF;" d="M451.507,438.61H346c-6.799,0-12.31-5.512-12.31-12.31v-35.941
				c0-6.799,5.512-12.31,12.31-12.31h105.506c6.799,0,12.31,5.512,12.31,12.31V426.3C463.817,433.099,458.305,438.61,451.507,438.61
				z"/>
			<path style="opacity:0.42;fill:#FFFFFF;" d="M442.393,438.61H336.887c-6.799,0-12.31-5.512-12.31-12.31v-35.941
				c0-6.799,5.511-12.31,12.31-12.31h105.506c6.799,0,12.31,5.512,12.31,12.31V426.3C454.703,433.099,449.192,438.61,442.393,438.61
				z"/>
			<g>
				<g>
					<path style="fill:#782F9B;" d="M380.765,395.335c-2.899,0-5.568,0.961-7.73,2.566c-0.051,0.038-0.102,0.075-0.153,0.114
						c-0.217,0.166-0.43,0.337-0.637,0.517c-0.003,0.003-0.006,0.006-0.009,0.009c-0.448,0.391-0.868,0.81-1.259,1.258
						c-0.004,0.004-0.008,0.009-0.012,0.013c-0.178,0.205-0.348,0.416-0.513,0.632c-0.041,0.053-0.081,0.108-0.121,0.162
						c-1.602,2.161-2.562,4.827-2.562,7.724c0,7.177,5.818,12.995,12.995,12.995c7.177,0,12.995-5.818,12.995-12.995
						C393.76,401.153,387.942,395.335,380.765,395.335z M385.824,412.667c-0.178,0.21-0.432,0.318-0.687,0.318
						c-0.205,0-0.411-0.07-0.58-0.213l-4.373-3.702c-0.152-0.128-0.235-0.299-0.278-0.479c-0.002-0.005-0.003-0.01-0.005-0.016
						c-0.017-0.075-0.024-0.148-0.021-0.224c-0.002-0.076,0.007-0.148,0.024-0.223c0.002-0.008,0.004-0.014,0.007-0.022
						c0.018-0.069,0.028-0.14,0.063-0.206l4.373-8.042c0.236-0.435,0.782-0.599,1.219-0.36c0.437,0.237,0.597,0.783,0.361,1.219
						l-4.044,7.437l3.835,3.246C386.098,411.72,386.145,412.287,385.824,412.667z"/>
					<path style="fill:#782F9B;" d="M375.26,395.119c-2.002-1.487-4.835-1.34-6.651,0.476c-1.742,1.742-1.963,4.427-0.666,6.41
						C369.471,398.919,372.068,396.455,375.26,395.119z"/>
					<path style="fill:#782F9B;" d="M393.488,401.799c1.156-1.961,0.909-4.52-0.775-6.204c-1.796-1.796-4.588-1.963-6.586-0.529
						C389.312,396.359,391.924,398.764,393.488,401.799z"/>
					<path style="fill:#782F9B;" d="M372.286,420.842c-0.267,0.477-0.096,1.08,0.382,1.347c0.153,0.085,0.318,0.126,0.482,0.126
						c0.347,0,0.684-0.183,0.865-0.508l0.378-0.678c-0.593-0.297-1.168-0.623-1.71-0.996L372.286,420.842z"/>
					<path style="fill:#782F9B;" d="M387.174,421.807c0.181,0.324,0.518,0.508,0.865,0.508c0.163,0,0.328-0.041,0.482-0.126
						c0.477-0.267,0.648-0.87,0.382-1.347l-0.304-0.545c-0.55,0.361-1.13,0.678-1.73,0.962L387.174,421.807z"/>
				</g>
				<g>
					
						<text transform="matrix(1 0 0 1 398.7795 421.2235)" style="fill:#782F9B; font-family:'Montserrat-Bold'; font-size:16.7211px;">7:00</text>
				</g>
			</g>
		</g>
		<g>
			<path style="opacity:0.77;fill:#FFFFFF;" d="M212.896,118.614H67.216c-6.799,0-12.31-5.512-12.31-12.31V70.363
				c0-6.799,5.511-12.31,12.31-12.31h145.679c6.799,0,12.31,5.512,12.31,12.31v35.941
				C225.206,113.103,219.695,118.614,212.896,118.614z"/>
			<g>
				<path style="fill:#62B155;" d="M96.411,109.114c-0.207,0-0.415-0.041-0.613-0.124c-0.585-0.247-0.965-0.82-0.965-1.454V91.932
					l-7.776,7.286c-0.636,0.594-1.636,0.564-2.231-0.073c-0.596-0.636-0.564-1.635,0.073-2.231l9.185-8.607l-9.145-7.992
					c-0.657-0.574-0.723-1.571-0.15-2.227c0.571-0.656,1.571-0.724,2.227-0.15l7.817,6.831V69.132c0-0.663,0.414-1.255,1.036-1.482
					c0.624-0.228,1.321-0.042,1.748,0.464l9.031,10.697c0.542,0.642,0.486,1.596-0.127,2.17l-7.734,7.246l9.096,7.95
					c0.332,0.29,0.527,0.705,0.539,1.146c0.012,0.44-0.161,0.865-0.476,1.173l-10.434,10.171
					C97.211,108.958,96.814,109.114,96.411,109.114z M97.989,91.721v12.072l6.53-6.365L97.989,91.721z M97.989,73.448v11.202
					l5.281-4.947L97.989,73.448z"/>
			</g>
			<g>
				<g>
					
						<text transform="matrix(1 0 0 1 187.3232 103.7026)" style="fill:#62B155; font-family:'Montserrat-Bold'; font-size:5.3901px;">2:37</text>
				</g>
				<g>
					
						<text transform="matrix(1 0 0 1 125.7842 103.7026)" style="fill:#62B155; font-family:'Montserrat-Bold'; font-size:5.3901px;">0:37</text>
				</g>
				<g>
					<path style="fill:#62B155;" d="M128.348,81.397c0,1.967-1.594,3.561-3.561,3.561c-1.967,0-3.561-1.594-3.561-3.561
						c0-1.967,1.594-3.561,3.561-3.561C126.754,77.836,128.348,79.43,128.348,81.397z"/>
					<path style="fill:#62B155;" d="M140.056,86.579c0,1.967-1.594,3.561-3.561,3.561c-1.967,0-3.561-1.594-3.561-3.561
						c0-1.967,1.594-3.561,3.561-3.561C138.462,83.018,140.056,84.613,140.056,86.579z"/>
					<g>
						<path style="fill:#62B155;" d="M139.032,87.563c-0.566,0-1.024-0.459-1.024-1.024V73.667l-9.676-3.893v11.625
							c0,0.566-0.459,1.024-1.024,1.024c-0.566,0-1.024-0.459-1.024-1.024V68.258c0-0.34,0.169-0.658,0.45-0.849
							c0.283-0.19,0.642-0.228,0.956-0.102l11.725,4.716c0.387,0.156,0.642,0.532,0.642,0.95v13.564
							C140.056,87.105,139.598,87.563,139.032,87.563z"/>
					</g>
					<polygon style="fill:#62B155;" points="127.307,74.314 139.032,78.975 139.032,72.975 127.307,68.258 					"/>
				</g>
				<g>
					<path style="fill:#62B155;" d="M197.493,97.746h-49.178c-0.479,0-0.867-0.388-0.867-0.867c0-0.479,0.388-0.867,0.867-0.867
						h49.178c0.479,0,0.867,0.388,0.867,0.867C198.359,97.359,197.971,97.746,197.493,97.746z"/>
				</g>
				<g>
					<path style="fill:#62B155;" d="M145.282,97.746h-19.498c-0.479,0-0.867-0.388-0.867-0.867c0-0.479,0.388-0.867,0.867-0.867
						h19.498c0.479,0,0.867,0.388,0.867,0.867C146.148,97.359,145.76,97.746,145.282,97.746z"/>
				</g>
			</g>
		</g>
		<g>
			<path style="fill:#5DA54E;" d="M213.892,450.941H68.212c-6.799,0-12.31-5.512-12.31-12.31V402.69
				c0-6.799,5.512-12.31,12.31-12.31h145.679c6.799,0,12.31,5.512,12.31,12.31v35.941
				C226.202,445.43,220.691,450.941,213.892,450.941z"/>
			<path style="fill:#62B155;" d="M204.778,450.941H59.098c-6.799,0-12.31-5.512-12.31-12.31V402.69
				c0-6.799,5.512-12.31,12.31-12.31h145.68c6.799,0,12.31,5.512,12.31,12.31v35.941
				C217.088,445.43,211.577,450.941,204.778,450.941z"/>
			<g>
				<g>
					
						<text transform="matrix(1 0 0 1 92.677 426.7623)" style="fill:#FFFFFF; font-family:'Montserrat-Regular'; font-size:16.5252px;">7,000</text>
					<g>
						<path style="fill:#FFFFFF;" d="M65.766,422.645c0,0-5.172-6.145-2.171-11.343c3.001-5.198,16.013-4.226,16.013,5.671
							c0,8.34-3.113,19.572-10.342,18.126C65.289,434.304,65.766,422.645,65.766,422.645z"/>
						<path style="fill:#FFFFFF;" d="M59.784,407.671c-1.276-2.499,1.377-4.241,2.902-3.361c1.525,0.88,2.096,2.535,1.764,3.785
							C64.124,409.317,61.428,410.892,59.784,407.671z"/>
						<path style="fill:#FFFFFF;" d="M65.2,405.661c-0.616-1.912,1.458-2.841,2.436-2.044c0.977,0.797,1.192,2.032,0.814,2.878
							C68.08,407.321,65.994,408.127,65.2,405.661z"/>
						<path style="fill:#FFFFFF;" d="M69.59,404.496c0.185-2.001,2.458-2.039,3.044-0.922c0.585,1.117,0.298,2.337-0.382,2.966
							C71.586,407.155,69.351,407.075,69.59,404.496z"/>
						<path style="fill:#FFFFFF;" d="M74.166,405.266c0.769-1.747,2.828-1.098,3.02,0.085c0.191,1.183-0.435,2.196-1.238,2.558
							C75.164,408.263,73.174,407.519,74.166,405.266z"/>
						<path style="fill:#FFFFFF;" d="M77.52,407.598c0.68-1.546,2.503-0.971,2.672,0.075c0.169,1.046-0.385,1.942-1.095,2.263
							C78.403,410.249,76.643,409.591,77.52,407.598z"/>
					</g>
				</g>
			</g>
		</g>
		<g>
			<g>
				<path style="fill:#A5B4D6;" d="M193.588,415.366H327.54c8.162,0,14.778-6.617,14.778-14.778V125.991
					c0-8.162-6.617-14.778-14.778-14.778H194.853c-8.162,0-14.778,6.616-14.778,14.778v275.862
					C180.075,409.316,186.125,415.366,193.588,415.366z"/>
				<path style="fill:#B7C3E5;" d="M180.565,415.366h133.951c8.162,0,14.778-6.617,14.778-14.778V125.991
					c0-8.162-6.616-14.778-14.778-14.778H181.83c-8.162,0-14.778,6.616-14.778,14.778v275.862
					C167.051,409.316,173.102,415.366,180.565,415.366z"/>
				<g>
					
						<rect x="176.641" y="127.431" transform="matrix(-1 -1.224647e-16 1.224647e-16 -1 496.3454 512.3422)" style="fill:#FFFEFF;" width="143.063" height="257.48"/>
				</g>
				<rect x="176.641" y="127.431" style="fill:#4E4E7F;" width="143.063" height="27.683"/>
				
					<ellipse transform="matrix(0.1202 -0.9928 0.9928 0.1202 -180.8932 595.4576)" style="fill:none;stroke:#A1AED3;stroke-width:1.4986;stroke-miterlimit:10;" cx="245.503" cy="399.787" rx="9.407" ry="9.406"/>
				<g>
					<path style="fill:#A1AED3;" d="M253.836,120.434c0,1.269,1.029,2.298,2.298,2.298c1.269,0,2.298-1.029,2.298-2.298
						c0-1.269-1.029-2.298-2.298-2.298C254.865,118.136,253.836,119.165,253.836,120.434z"/>
					<path style="fill:#A1AED3;" d="M227.362,118.136c0.021,0,0.041,0.006,0.061,0.006v-0.006h20.689
						c1.269,0,2.298,1.029,2.298,2.298c0,1.269-1.029,2.298-2.298,2.298h-20.689v-0.006c-0.021,0.001-0.04,0.006-0.061,0.006
						c-1.269,0-2.298-1.029-2.298-2.298C225.064,119.165,226.093,118.136,227.362,118.136z"/>
				</g>
				
					<text transform="matrix(1 0 0 1 235.6538 147.1792)" style="fill:#FFFEFF; font-family:'Montserrat-Bold'; font-size:15.7249px;">07:37</text>
				<g>
					<g>
						<g>
							<path style="fill:#62B155;" d="M295.105,144.991h-2.778c-0.181,0-0.327-0.146-0.327-0.327v-7.067
								c0-0.181,0.146-0.327,0.327-0.327h2.778c0.18,0,0.327,0.146,0.327,0.327v7.067
								C295.432,144.845,295.285,144.991,295.105,144.991z"/>
						</g>
						<g>
							<path style="fill:#62B155;" d="M299.931,144.991h-2.778c-0.18,0-0.327-0.146-0.327-0.327v-7.067
								c0-0.181,0.146-0.327,0.327-0.327h2.778c0.18,0,0.327,0.146,0.327,0.327v7.067
								C300.257,144.845,300.111,144.991,299.931,144.991z"/>
						</g>
						<g>
							<path style="fill:#62B155;" d="M304.756,144.991h-2.778c-0.18,0-0.327-0.146-0.327-0.327v-7.067
								c0-0.181,0.146-0.327,0.327-0.327h2.778c0.181,0,0.327,0.146,0.327,0.327v7.067
								C305.083,144.845,304.937,144.991,304.756,144.991z"/>
						</g>
						<g>
							<path style="fill:#62B155;" d="M309.582,144.991h-2.778c-0.181,0-0.327-0.146-0.327-0.327v-7.067
								c0-0.181,0.146-0.327,0.327-0.327h2.778c0.181,0,0.327,0.146,0.327,0.327v7.067
								C309.908,144.845,309.762,144.991,309.582,144.991z"/>
						</g>
					</g>
					<g>
						<path style="fill:#62B155;" d="M310.148,146.493h-18.387c-0.792,0-1.436-0.644-1.436-1.436v-7.851
							c0-0.792,0.644-1.436,1.436-1.436h18.387c0.792,0,1.437,0.645,1.437,1.436v7.851
							C311.584,145.849,310.94,146.493,310.148,146.493z M291.761,136.413c-0.437,0-0.792,0.356-0.792,0.793v7.851
							c0,0.437,0.355,0.792,0.792,0.792h18.387c0.437,0,0.793-0.355,0.793-0.792v-7.851c0-0.437-0.356-0.793-0.793-0.793H291.761z"
							/>
					</g>
					<g>
						<path style="fill:#62B155;" d="M312.316,143.249h-0.727c-0.18,0-0.327-0.146-0.327-0.327v-3.1c0-0.18,0.146-0.327,0.327-0.327
							h0.727c0.18,0,0.327,0.146,0.327,0.327v3.1C312.643,143.103,312.497,143.249,312.316,143.249z"/>
					</g>
				</g>
				
					<text transform="matrix(1 0 0 1 189.0679 147.1792)" style="fill:#FFFEFF; font-family:'Montserrat-Regular'; font-size:8.2009px;">Sun 13/07</text>
				<g style="opacity:0.77;">
					<g>
						
							<text transform="matrix(1 0 0 1 194.3555 228.8433)" style="fill:#4E4E7F; font-family:'Montserrat-Bold'; font-size:13.59px;">Mileage Today</text>
					</g>
					<g>
						
							<text transform="matrix(1 0 0 1 194.3555 261.0469)" style="fill:#4E4E7F; font-family:'Montserrat-Bold'; font-size:28.8943px;">7 Km</text>
					</g>
				</g>
				<g style="opacity:0.77;">
					<g>
						
							<text transform="matrix(1 0 0 1 194.3555 299.373)" style="fill:#636393; font-family:'Montserrat-Bold'; font-size:16.3112px;">Steps</text>
					</g>
					<g>
						
							<text transform="matrix(1 0 0 1 194.3555 318.5771)" style="fill:#636393; font-family:'Montserrat-Bold'; font-size:16.3112px;">7,000</text>
					</g>
				</g>
				<g style="opacity:0.77;">
					<g>
						
							<text transform="matrix(1 0 0 1 194.3555 345.4971)" style="fill:#636393; font-family:'Montserrat-Bold'; font-size:16.3112px;">Kcal</text>
					</g>
					<g>
						
							<text transform="matrix(1 0 0 1 194.3555 364.7012)" style="fill:#636393; font-family:'Montserrat-Bold'; font-size:16.3112px;">713</text>
					</g>
				</g>
			</g>
			<g>
				<path style="fill:#393663;" d="M340.186,398.081c-1.766-0.71-4.471-0.324-9.326,0.134c-9.285,0.876-26.6,4.426-29.122,2.97
					c-2.522-1.456-7.008-39.067-7.008-39.067l23.65-1.577c0,0-3.314,24.095-3.314,24.971c0,0.876,7.032-2.604,16.681,1.023
					c1.415,0.532,8.936,1.869,8.936,1.869s0.771,2.481,0.771,4.551C341.454,395.026,340.186,398.081,340.186,398.081z"/>
				<path style="fill:#2D2D51;" d="M316.489,374.427l-10.693,14.871c0,0,1.626,10.441,0.652,12.129l-3.31,0.068l-2.068-14.56
					l16.51-20.555L316.489,374.427z"/>
				<path style="fill:#393663;" d="M330.834,307.579c0,0,6.659,17.436,7.469,26.333c1.883,20.66-13.08,26.171-19.211,34.055
					c-6.132,7.884-15.253,19.203-15.253,21.305s2.102,11.037-0.876,20.322c-2.978,9.285-14.187,24.546-14.187,27.174
					c-4.551,0-9.11-3.329-9.11-3.329s5.603-39.262,5.603-42.941c0-7.26,0.896-17.278,5.813-25.794c0,0-7.533-23.3-7.533-39.767
					C283.549,324.936,327.417,310.995,330.834,307.579z"/>
				<polygon style="fill:#2D2D51;" points="303.138,342.321 291.082,364.704 290.202,361.821 				"/>
				<g>
					<g>
						<path style="fill:#F9BBB9;" d="M261.596,264.579c1.966-1.742,6.03-0.164,6.767,0.278c0.736,0.443,1.593,6.072,1.593,6.072
							l0,0.001c2.284,1.546,6.374,4.002,10.974,6.681c2.65,1.543,3.477,4.992,1.805,7.563h0c-1.782,2.74-5.578,3.259-8.038,1.106
							c-3.273-2.865-6.43-5.777-8.497-7.52c0,0-4.444-3.451-6.131-6.495C258.38,269.221,259.63,266.321,261.596,264.579z"/>
						<path style="fill:#F9BBB9;" d="M325.258,268.49c2.044,7.947-36.5,6.003-37.335-0.796c-0.785-6.406,0.677-17.748,1.243-22.252
							c1.601-12.743,11.146-4.287,19.885-6.863C309.824,245.943,317.697,249.267,325.258,268.49z"/>
						<g>
							<path style="opacity:0.81;fill:#EFA5A5;" d="M289.166,245.441c0,0,12.921-0.522,16.545-2.923c0,0-4.052,4.288-16.587,4.801
								L289.166,245.441z"/>
							<g>
								<path style="fill:#F9BBB9;" d="M295.07,185.016c0,0,5.688,0.464,11.959,2.939c6.429,2.538,13.469,7.193,15.615,15.632
									c1.236,4.859,1.546,9.691,0.909,14.261c-1.548,11.106-8.68,20.649-21.648,25.209c-9.152,3.217-19.555,3.487-27.997-0.924
									c-8.444-4.41-14.803-15.54-14.43-25.682c0.373-10.142,4.099-16.066,10.397-21.697
									C276.172,189.123,284.914,185.826,295.07,185.016z"/>
								<g>
									<path style="fill:#E59A9A;" d="M289.317,226.096c-1.226,2.122-4.397,3.216-5.578,0.369
										c-0.393-0.951-1.902-0.409-1.507,0.547c0.667,1.609,2.139,2.795,3.928,2.828c2.047,0.038,3.633-1.371,4.602-3.048
										C291.28,225.896,289.831,225.208,289.317,226.096L289.317,226.096z"/>
								</g>
								<g>
									<path style="fill:#E59A9A;" d="M285.467,222.966c-0.019,0.003-0.038,0.006-0.057,0.007
										c-0.092,0.005-0.902,0.056-1.44-0.013c-1.302-0.169-1.848-0.761-2.077-1.228c-0.237-0.483-0.37-1.314,0.342-2.529
										c0.632-1.077,0.47-3.034,0.354-3.699c-0.061-0.349,0.174-0.685,0.525-0.745c0.006-0.001,0.01-0.002,0.014-0.002
										c0.346-0.053,0.672,0.18,0.734,0.525c0.021,0.116,0.491,2.868-0.512,4.575c-0.324,0.553-0.433,1.028-0.298,1.306
										c0.127,0.259,0.512,0.442,1.081,0.515c0.352,0.045,0.981,0.02,1.193,0.007c0.357-0.023,0.665,0.247,0.686,0.602
										C286.034,222.624,285.794,222.916,285.467,222.966z"/>
								</g>
								<path style="fill:#EFA5A5;" d="M263.012,230.779c0.883,0.286,1.842,0.376,2.822,0.225c3.35-0.516,5.646-3.648,5.131-6.997
									c-0.516-3.349-3.648-5.647-6.998-5.131c-1.256,0.193-2.364,0.754-3.23,1.557"/>
							</g>
							<path style="fill:#001913;" d="M270.612,217.138c0.115,1.36,0.987,2.399,1.949,2.318c0.962-0.08,1.651-1.249,1.537-2.609
								c-0.115-1.36-0.987-2.4-1.95-2.318C271.185,214.609,270.498,215.776,270.612,217.138z"/>
							<path style="fill:#001913;" d="M298.482,215.67c0.113,1.362,0.986,2.4,1.948,2.32c0.964-0.081,1.651-1.249,1.536-2.61
								c-0.113-1.36-0.987-2.398-1.949-2.319C299.054,213.143,298.369,214.311,298.482,215.67z"/>
						</g>
						<path style="fill:#282828;" d="M265.382,234.68c-13.016-13.414-10.635-34.079-0.869-47.398
							c9.766-13.319,34.292-12.992,34.292-12.992c22.632,1.183,31.769,12.807,34.828,32.673
							c1.961,12.737-4.574,28.041-20.295,29.663c6.604-8.61,5.578-13.178,2.905-20.029c-1.24-3.18-5.629-6.072-5.629-6.072
							c-20.686,2.243-45.356-10.94-45.356-10.94c-5.074,6.758-3.272,26.656-0.927,32.993
							C264.629,233.389,265.072,234.183,265.382,234.68z"/>
						<path style="fill:#EFA5A5;" d="M314.448,220.024c0.518,3.364-1.788,6.51-5.151,7.028c-3.364,0.518-6.511-1.789-7.029-5.153
							c-0.518-3.363,1.789-6.509,5.153-7.027C310.785,214.354,313.93,216.661,314.448,220.024z"/>
						<g>
							<path style="fill:#F9BBB9;" d="M317.911,225.271c0.378,0.043,1.215,0.041,1.61-0.02c2.367-0.364,3.992-2.58,3.627-4.948
								c-0.365-2.367-2.58-3.992-4.948-3.627c-0.593,0.091-1.133,0.527-1.612,0.824c0,0,0.752,1.938,1.037,4.855
								C317.911,225.271,317.911,225.271,317.911,225.271z"/>
							<g>
								<path style="fill:#EFA5A5;" d="M321.118,221.539c-0.31,0.048-0.617-0.133-0.718-0.441c-0.565-1.736-2.259-1.726-2.332-1.725
									c-0.357,0.007-0.656-0.277-0.665-0.635c-0.007-0.355,0.272-0.653,0.629-0.664c0.943-0.032,2.909,0.478,3.606,2.622
									c0.11,0.341-0.077,0.708-0.42,0.82C321.185,221.527,321.15,221.534,321.118,221.539z"/>
							</g>
						</g>
						<g>
							<path style="fill:#282828;" d="M323.594,226.356c0,0,9.377-3.393,18.457,5.694c9.08,9.087,11.077,21.25,15.981,22.973
								c4.904,1.723-6.422,0.247-13.657-1.332c-19.27-4.205-22.891-19.933-22.891-19.933S323.91,228.415,323.594,226.356z"/>
							<g>
								<path style="fill:#5560AF;" d="M323.465,234.277c-0.563,0.177-0.924,0.232-0.98,0.239c-0.486,0.068-0.935-0.272-1.002-0.759
									c-0.068-0.485,0.268-0.93,0.754-1.001c0.198-0.03,4.665-0.764,7.484-6.664c0.211-0.443,0.743-0.631,1.185-0.419
									c0.443,0.212,0.631,0.742,0.418,1.185C328.866,232.006,325.205,233.729,323.465,234.277z"/>
							</g>
						</g>
						<g>
							<path style="fill:#F9BBB9;" d="M274.923,284.797c-4.458-0.997-6.833-6.631-6.503-8.485c8.085-0.153,4.366,3.59,7.143,1.556
								c2.539-1.859,5.299-17.076,6.415-18.349c4.447,0.902,11.474,4.967,10.581,8.332c-1.748,4.085-14.978,19.75-14.978,19.75
								S286.225,287.326,274.923,284.797z"/>
						</g>
						<g>
							<g>
								<g>
									<path style="fill:#782F9B;" d="M288.88,247.738c0,0-3.951,1.712-7.045,4.208c-3.232,2.608-6.385,14.906-6.912,18.848
										c3.147,0.992,7.326,1.009,7.326,1.009l0.046,57.093c0,0,20.843,13.427,58.402-6.614l-10.628-44.786l3.307-14.63
										c0,0-0.703-3.273-7.634-12.399c-5.39-7.096-15.578-8.163-15.578-8.163s-9.969,8.178-15.363,8.686
										C287.678,251.66,288.88,247.738,288.88,247.738z"/>
								</g>
								<path style="opacity:0.05;fill:#070707;" d="M326.637,264.285l14.06,57.995c-6.86,3.97-14.534,7.616-23.467,9.147
									C317.23,331.427,335.713,306.515,326.637,264.285z"/>
							</g>
						</g>
						<polygon style="opacity:0.14;fill:#070707;" points="318.063,265.016 315.715,265.919 314.521,263.826 315.424,267.043 
							318.438,266.15 						"/>
						<path style="fill:#F9BBB9;" d="M293.312,307.538c-1.022-2.42,1.773-5.766,2.428-6.322c0.655-0.556,6.263,0.433,6.263,0.433
							l0,0.001c2.952-2.246,15.386-8.91,20.953-13.841l0.032,0.04c2.939-2.699,2.836-3.764,3.218-5.359
							c0.732-3.06-8.055-15.693-8.029-17.386c3.973-2.19,12.757-6.11,14.254-2.967c2.9,4.908,7.393,18.977,7.437,23.824
							c0.01,1.133-0.331,2.229-0.981,3.157c-1.566,2.236-5.188,6.419-12.261,10.137c-0.055,0.029-0.121,0.048-0.178,0.075
							c-4.236,2.505-15.604,6.795-18.227,8.384c0,0-4.691,3.107-8.115,3.731C296.681,312.069,294.334,309.958,293.312,307.538z"/>
						<polygon style="opacity:0.14;fill:#070707;" points="282.404,264.554 282.249,271.802 281.129,271.765 						"/>
						<path style="fill:#EFA5A5;" d="M268.15,270.786c0,0-1.158,2.601-2.553,3.406c-1.395,0.805-4.825-0.833-4.825-0.833
							s2.581,1.858,3.809,1.858c3.445,0,4.807-6.198,4.807-6.198L268.15,270.786z"/>
					</g>
					<path style="fill:#393663;" d="M302.626,301.204c0.871,1.013,5.594,6.509,5.594,6.509s2.363-0.647,3.733-1.793
						c-0.802-1.134-5.578-7.073-5.578-7.073S304.719,299.307,302.626,301.204z"/>
					<g>
						<path style="fill:#494977;" d="M308.933,306.705c-0.425,0-0.848-0.179-1.146-0.527l-3.285-3.833
							c-0.542-0.633-0.468-1.585,0.164-2.127c0.634-0.543,1.586-0.468,2.127,0.164l3.285,3.834c0.542,0.633,0.468,1.585-0.164,2.127
							C309.629,306.586,309.28,306.705,308.933,306.705z"/>
					</g>
				</g>
				<path style="fill:#62B155;" d="M288.776,436.768c0,2.628-0.701,8.059-2.102,9.46c-1.401,1.402-13.627-2.564-16.468-4.204
					c-2.841-1.64-5.632-2.662-4.236-4.058c1.396-1.396,13.697-4.526,13.697-4.526L288.776,436.768z"/>
				<path style="fill:#62B155;" d="M340.685,388.395c2.511-0.774,7.908-1.703,9.66-0.776s1.561,13.778,0.83,16.976
					c-0.731,3.198-0.886,6.167-2.631,5.243c-1.745-0.923-8.358-11.757-8.358-11.757L340.685,388.395z"/>
			</g>
		</g>
		<g>
			<path style="fill:#62B155;" d="M373.692,184.807h-9.294c-1.295,0-2.344-1.05-2.344-2.344v-9.294c0-1.295,1.05-2.344,2.344-2.344
				h9.294c1.295,0,2.344,1.05,2.344,2.344v9.294C376.036,183.757,374.986,184.807,373.692,184.807z"/>
			<path style="fill:#FFFEFF;" d="M373.692,208.974h-9.294c-1.295,0-2.344-1.05-2.344-2.344v-9.294c0-1.295,1.05-2.344,2.344-2.344
				h9.294c1.295,0,2.344,1.05,2.344,2.344v9.294C376.036,207.924,374.986,208.974,373.692,208.974z"/>
			<path style="fill:#782F9B;" d="M373.691,233.141h-9.294c-1.295,0-2.344-1.05-2.344-2.344v-9.294c0-1.295,1.05-2.344,2.344-2.344
				h9.294c1.295,0,2.344,1.05,2.344,2.344v9.294C376.036,232.091,374.986,233.141,373.691,233.141z"/>
			<g>
				
					<line style="fill:none;stroke:#B7C3E5;stroke-width:3.3488;stroke-linecap:round;stroke-linejoin:round;stroke-miterlimit:10;" x1="385.083" y1="174.319" x2="427.221" y2="174.319"/>
				
					<line style="fill:none;stroke:#B7C3E5;stroke-width:3.3488;stroke-linecap:round;stroke-linejoin:round;stroke-miterlimit:10;" x1="385.083" y1="181.311" x2="427.221" y2="181.311"/>
			</g>
			<g>
				
					<line style="fill:none;stroke:#B7C3E5;stroke-width:3.3488;stroke-linecap:round;stroke-linejoin:round;stroke-miterlimit:10;" x1="385.083" y1="198.487" x2="427.221" y2="198.487"/>
				
					<line style="fill:none;stroke:#B7C3E5;stroke-width:3.3488;stroke-linecap:round;stroke-linejoin:round;stroke-miterlimit:10;" x1="385.083" y1="205.478" x2="427.221" y2="205.478"/>
			</g>
			<g>
				
					<line style="fill:none;stroke:#B7C3E5;stroke-width:3.3488;stroke-linecap:round;stroke-linejoin:round;stroke-miterlimit:10;" x1="385.083" y1="222.654" x2="427.221" y2="222.654"/>
				
					<line style="fill:none;stroke:#B7C3E5;stroke-width:3.3488;stroke-linecap:round;stroke-linejoin:round;stroke-miterlimit:10;" x1="385.083" y1="229.645" x2="427.221" y2="229.645"/>
			</g>
		</g>
		<g>
			<g>
				<g>
					<g>
						<path style="fill:#782F9B;" d="M88.702,215.896c2.695-1.642,7.103-5.085,9.559-7.53c3.48-3.466,8.532-8.332,11.149-12.521
							c3.433-5.495,5.355-13.547,2.69-19.29c-1.809-3.898-6.176-7.597-11.206-8.148c-4.53-0.497-10.826,0.934-15.378,8.086
							c-2.069-4.097-6.435-7.171-9.997-7.587c-6.336-0.739-13.248,3.581-15.366,9.748c-2.215,6.449,0.483,13.559,3.45,18.362
							c3.168,5.128,14.702,14.899,21.715,19.117C85.724,216.378,86.983,216.84,88.702,215.896z"/>
					</g>
					<g>
						<path style="fill:#6D2C93;" d="M88.702,215.896c-1.719,0.943-2.979,0.482-3.385,0.237
							c-7.013-4.218-18.547-13.99-21.715-19.117c-2.967-4.803-5.665-11.912-3.45-18.362c2.118-6.167,9.03-10.487,15.366-9.748
							c0,0-7.476,2.111-6.411,12.354c1.064,10.243,22.095,32.956,22.095,32.956L88.702,215.896z"/>
					</g>
					<g style="opacity:0.65;">
						<path style="fill:#F5F5F5;" d="M108.54,178.796c0.115,0,0.231-0.02,0.345-0.063c0.503-0.191,0.757-0.753,0.567-1.257
							c-0.028-0.074-0.698-1.818-2.252-3.52c-2.094-2.294-4.799-3.43-7.818-3.286c-0.538,0.026-0.953,0.482-0.927,1.02
							c0.026,0.538,0.485,0.954,1.02,0.927c5.88-0.279,8.131,5.49,8.153,5.548C107.775,178.556,108.146,178.796,108.54,178.796z"/>
					</g>
				</g>
				
					<polyline style="fill:none;stroke:#62B155;stroke-width:2.4132;stroke-linecap:round;stroke-linejoin:round;stroke-miterlimit:10;" points="
					93.601,201.287 120.549,201.463 124.571,186.822 130.604,209.587 138.246,164.058 147.695,197.895 153.53,187.788 
					164.792,202.268 172.344,171.033 179.673,200.257 188.288,185.522 195.086,199.069 201.885,168.932 212.713,202.112 
					239.944,202.112 				"/>
			</g>
			<text transform="matrix(1 0 0 1 96.4111 227.3584)" style="fill:#782F9B; font-family:'Montserrat-Bold'; font-size:14.8692px;">113 BPM</text>
		</g>
	</g>
</g>
</svg>
