<svg width="400" height="400" viewBox="0 0 400 400" fill="none" xmlns="http://www.w3.org/2000/svg">
<g clip-path="url(#clip0_539_819)">
<rect width="400" height="400" rx="200" fill="#FFF0CA"/>
<path d="M118.271 309.344C110.666 309.344 105.21 307.195 101.903 302.896C98.5966 298.597 96.9433 292.315 96.9433 284.048C96.9433 276.443 98.3486 266.523 101.159 254.288C104.135 241.888 108.021 228.083 112.815 212.872C117.775 197.496 123.314 181.707 129.431 165.504C135.549 149.136 141.914 133.099 148.527 117.392C155.141 101.52 161.589 86.9707 167.871 73.744C170.847 67.9573 173.989 63.9893 177.295 61.84C180.602 59.6907 184.239 58.616 188.207 58.616C192.01 58.616 195.234 59.6907 197.879 61.84C200.525 63.824 201.847 67.048 201.847 71.512C201.847 72.504 200.525 76.3067 197.879 82.92C195.234 89.368 191.762 97.8 187.463 108.216C183.165 118.467 178.453 130.04 173.327 142.936C168.202 155.667 163.077 168.976 157.951 182.864C152.826 196.587 148.197 210.144 144.063 223.536C139.93 236.928 136.623 249.328 134.143 260.736C139.93 252.965 146.13 244.368 152.743 234.944C159.522 225.355 166.383 215.848 173.327 206.424C180.437 196.835 187.381 188.072 194.159 180.136C201.103 172.2 207.551 165.835 213.503 161.04C219.455 156.245 224.663 153.848 229.127 153.848C237.394 153.848 244.007 156.163 248.967 160.792C254.093 165.256 256.655 173.027 256.655 184.104C256.655 189.229 255.663 195.429 253.679 202.704C251.695 209.813 249.298 217.336 246.487 225.272C243.842 233.043 241.527 240.565 239.543 247.84C237.559 255.115 236.567 261.48 236.567 266.936C236.567 269.912 237.973 271.4 240.783 271.4C248.885 271.4 257.069 269.664 265.335 266.192C273.767 262.72 281.786 258.421 289.391 253.296C297.162 248.005 304.189 242.797 310.471 237.672C316.919 232.381 322.127 228 326.095 224.528C328.906 221.883 331.469 220.147 333.783 219.32C336.098 218.328 338.247 217.832 340.231 217.832C347.01 217.832 350.399 221.221 350.399 228C350.399 229.323 350.151 230.976 349.655 232.96C349.159 234.779 347.589 237.093 344.943 239.904C342.298 242.715 338.33 246.683 333.039 251.808C327.749 256.933 321.549 262.389 314.439 268.176C307.495 273.963 299.89 279.501 291.623 284.792C283.522 289.917 275.173 294.133 266.575 297.44C257.978 300.747 249.629 302.4 241.527 302.4C229.293 302.4 219.869 298.928 213.255 291.984C206.642 285.205 203.335 275.947 203.335 264.208C203.335 256.107 204.989 245.939 208.295 233.704C211.602 221.304 215.322 208.656 219.455 195.76C213.669 201.381 207.634 208.077 201.351 215.848C195.069 223.453 188.703 231.555 182.255 240.152C175.807 248.584 169.442 256.933 163.159 265.2C157.042 273.301 151.173 280.741 145.551 287.52C139.93 294.133 134.805 299.424 130.175 303.392C125.546 307.36 121.578 309.344 118.271 309.344Z" fill="#FF6D00"/>
<path d="M101.903 302.896L100.318 304.115L100.318 304.115L101.903 302.896ZM101.159 254.288L99.2145 253.821L99.2122 253.831L99.21 253.84L101.159 254.288ZM112.815 212.872L110.912 212.258L110.908 212.271L112.815 212.872ZM129.431 165.504L131.302 166.21L131.305 166.204L129.431 165.504ZM148.527 117.392L150.371 118.168L150.373 118.161L148.527 117.392ZM167.871 73.744L166.093 72.8293L166.078 72.8574L166.065 72.8859L167.871 73.744ZM177.295 61.84L178.385 63.5169L178.385 63.5169L177.295 61.84ZM197.879 61.84L196.618 63.3922L196.648 63.4167L196.679 63.44L197.879 61.84ZM197.879 82.92L199.73 83.6791L199.733 83.671L199.736 83.6628L197.879 82.92ZM187.463 108.216L189.308 108.989L189.312 108.979L187.463 108.216ZM173.327 142.936L175.183 143.683L175.186 143.675L173.327 142.936ZM157.951 182.864L159.825 183.564L159.828 183.556L157.951 182.864ZM144.063 223.536L145.974 224.126L145.974 224.126L144.063 223.536ZM134.143 260.736L132.189 260.311L135.747 261.931L134.143 260.736ZM152.743 234.944L151.11 233.79L151.106 233.795L152.743 234.944ZM173.327 206.424L171.721 205.233L171.717 205.238L173.327 206.424ZM194.159 180.136L192.654 178.819L192.646 178.828L192.639 178.837L194.159 180.136ZM213.503 161.04L212.249 159.482L212.249 159.482L213.503 161.04ZM248.967 160.792L247.603 162.254L247.628 162.278L247.654 162.3L248.967 160.792ZM253.679 202.704L255.606 203.242L255.609 203.23L253.679 202.704ZM246.487 225.272L244.602 224.604L244.598 224.616L244.594 224.627L246.487 225.272ZM239.543 247.84L237.614 247.314L237.614 247.314L239.543 247.84ZM265.335 266.192L264.574 264.343L264.561 264.348L265.335 266.192ZM289.391 253.296L290.509 254.955L290.517 254.949L289.391 253.296ZM310.471 237.672L311.736 239.222L311.74 239.218L310.471 237.672ZM326.095 224.528L327.412 226.033L327.44 226.009L327.466 225.984L326.095 224.528ZM333.783 219.32L334.456 221.203L334.514 221.183L334.571 221.158L333.783 219.32ZM349.655 232.96L351.585 233.486L351.59 233.466L351.596 233.445L349.655 232.96ZM333.039 251.808L334.431 253.244L334.431 253.244L333.039 251.808ZM314.439 268.176L313.177 266.625L313.168 266.632L313.159 266.64L314.439 268.176ZM291.623 284.792L292.693 286.482L292.701 286.477L291.623 284.792ZM266.575 297.44L267.293 299.307L266.575 297.44ZM213.255 291.984L214.704 290.605L214.695 290.596L214.687 290.587L213.255 291.984ZM208.295 233.704L210.226 234.226L210.228 234.219L208.295 233.704ZM219.455 195.76L221.36 196.37L218.062 194.325L219.455 195.76ZM201.351 215.848L202.893 217.122L202.9 217.114L202.907 217.105L201.351 215.848ZM182.255 240.152L183.844 241.367L183.85 241.359L183.855 241.352L182.255 240.152ZM163.159 265.2L161.567 263.99L161.563 263.995L163.159 265.2ZM145.551 287.52L147.075 288.815L147.083 288.806L147.091 288.797L145.551 287.52ZM130.175 303.392L128.874 301.873L128.874 301.873L130.175 303.392ZM118.271 307.344C111.022 307.344 106.28 305.306 103.488 301.677L100.318 304.115C104.14 309.084 110.31 311.344 118.271 311.344V307.344ZM103.488 301.677C100.559 297.869 98.9433 292.093 98.9433 284.048H94.9433C94.9433 292.537 96.6339 299.326 100.318 304.115L103.488 301.677ZM98.9433 284.048C98.9433 276.659 100.313 266.905 103.108 254.736L99.21 253.84C96.3844 266.14 94.9433 276.226 94.9433 284.048H98.9433ZM103.104 254.755C106.067 242.41 109.939 228.65 114.723 213.473L110.908 212.271C106.102 227.515 102.204 241.366 99.2145 253.821L103.104 254.755ZM114.719 213.486C119.668 198.143 125.196 182.385 131.302 166.21L127.56 164.798C121.432 181.029 115.883 196.849 110.912 212.258L114.719 213.486ZM131.305 166.204C137.413 149.861 143.768 133.849 150.371 118.168L146.684 116.616C140.06 132.348 133.684 148.411 127.558 164.804L131.305 166.204ZM150.373 118.161C156.976 102.314 163.411 87.795 169.678 74.6021L166.065 72.8859C159.766 86.1464 153.305 100.726 146.681 116.623L150.373 118.161ZM169.65 74.6587C172.559 69.0026 175.503 65.3906 178.385 63.5169L176.205 60.1631C172.475 62.588 169.136 66.9121 166.093 72.8293L169.65 74.6587ZM178.385 63.5169C181.365 61.5798 184.624 60.616 188.207 60.616V56.616C183.855 56.616 179.838 57.8015 176.205 60.1631L178.385 63.5169ZM188.207 60.616C191.607 60.616 194.371 61.5662 196.618 63.3922L199.14 60.2878C196.097 57.8151 192.413 56.616 188.207 56.616V60.616ZM196.679 63.44C198.657 64.9233 199.847 67.4396 199.847 71.512H203.847C203.847 66.6563 202.392 62.7247 199.079 60.24L196.679 63.44ZM199.847 71.512C199.847 71.4575 199.839 71.642 199.671 72.2511C199.522 72.7907 199.29 73.5197 198.966 74.4509C198.32 76.3097 197.341 78.8809 196.022 82.1772L199.736 83.6628C201.063 80.3457 202.068 77.709 202.744 75.765C203.082 74.7949 203.345 73.9739 203.527 73.3148C203.69 72.7253 203.847 72.0625 203.847 71.512H199.847ZM196.029 82.1609C193.384 88.607 189.913 97.0376 185.615 107.453L189.312 108.979C193.611 98.5624 197.084 90.1289 199.73 83.6791L196.029 82.1609ZM185.619 107.443C181.314 117.707 176.598 129.292 171.469 142.197L175.186 143.675C180.308 130.788 185.015 119.226 189.308 108.989L185.619 107.443ZM171.472 142.189C166.339 154.939 161.207 168.267 156.075 182.172L159.828 183.556C164.947 169.685 170.065 156.394 175.183 143.683L171.472 142.189ZM156.078 182.164C150.939 195.922 146.297 209.516 142.152 222.946L145.974 224.126C150.096 210.772 154.712 197.252 159.825 183.564L156.078 182.164ZM142.152 222.946C138.005 236.382 134.683 248.838 132.189 260.311L136.098 261.161C138.563 249.818 141.855 237.474 145.974 224.126L142.152 222.946ZM135.747 261.931C141.547 254.142 147.758 245.529 154.38 236.093L151.106 233.795C144.502 243.207 138.313 251.788 132.539 259.541L135.747 261.931ZM154.376 236.098C161.148 226.52 168.001 217.024 174.937 207.61L171.717 205.238C164.765 214.672 157.896 224.19 151.11 233.79L154.376 236.098ZM174.934 207.615C182.02 198.058 188.935 189.331 195.68 181.435L192.639 178.837C185.826 186.813 178.854 195.612 171.721 205.233L174.934 207.615ZM195.664 181.453C202.559 173.574 208.923 167.298 214.758 162.597L212.249 159.482C206.18 164.371 199.648 170.826 192.654 178.819L195.664 181.453ZM214.758 162.597C220.584 157.904 225.346 155.848 229.127 155.848V151.848C223.98 151.848 218.326 154.586 212.249 159.482L214.758 162.597ZM229.127 155.848C237.004 155.848 243.09 158.043 247.603 162.254L250.332 159.33C244.924 154.283 237.784 151.848 229.127 151.848V155.848ZM247.654 162.3C252.132 166.201 254.655 173.25 254.655 184.104H258.655C258.655 172.804 256.053 164.311 250.281 159.284L247.654 162.3ZM254.655 184.104C254.655 188.989 253.707 195.002 251.75 202.178L255.609 203.23C257.62 195.857 258.655 189.469 258.655 184.104H254.655ZM251.753 202.166C249.783 209.226 247.4 216.705 244.602 224.604L248.373 225.94C251.196 217.967 253.608 210.4 255.606 203.242L251.753 202.166ZM244.594 224.627C241.936 232.434 239.609 239.996 237.614 247.314L241.473 248.366C243.445 241.135 245.747 233.652 248.381 225.917L244.594 224.627ZM237.614 247.314C235.599 254.7 234.567 261.249 234.567 266.936H238.567C238.567 261.711 239.519 255.53 241.473 248.366L237.614 247.314ZM234.567 266.936C234.567 268.705 234.983 270.403 236.167 271.657C237.372 272.933 239.039 273.4 240.783 273.4V269.4C239.716 269.4 239.276 269.123 239.075 268.911C238.854 268.677 238.567 268.143 238.567 266.936H234.567ZM240.783 273.4C249.178 273.4 257.624 271.6 266.11 268.036L264.561 264.348C256.513 267.728 248.592 269.4 240.783 269.4V273.4ZM266.097 268.041C274.654 264.518 282.792 260.155 290.509 254.955L288.274 251.637C280.78 256.688 272.88 260.922 264.574 264.343L266.097 268.041ZM290.517 254.949C298.328 249.631 305.402 244.389 311.736 239.222L309.207 236.122C302.975 241.206 295.996 246.38 288.266 251.643L290.517 254.949ZM311.74 239.218C318.196 233.921 323.422 229.525 327.412 226.033L324.778 223.023C320.833 226.475 315.642 230.842 309.203 236.126L311.74 239.218ZM327.466 225.984C330.178 223.432 332.507 221.9 334.456 221.203L333.111 217.437C330.431 218.394 327.634 220.333 324.725 223.072L327.466 225.984ZM334.571 221.158C336.701 220.245 338.58 219.832 340.231 219.832V215.832C337.914 215.832 335.494 216.411 332.995 217.482L334.571 221.158ZM340.231 219.832C343.312 219.832 345.256 220.601 346.443 221.788C347.63 222.976 348.399 224.919 348.399 228H352.399C352.399 224.302 351.474 221.162 349.271 218.96C347.069 216.758 343.929 215.832 340.231 215.832V219.832ZM348.399 228C348.399 229.096 348.19 230.573 347.715 232.475L351.596 233.445C352.112 231.379 352.399 229.55 352.399 228H348.399ZM347.726 232.434C347.367 233.749 346.096 235.761 343.487 238.533L346.4 241.275C349.081 238.426 350.951 235.809 351.585 233.486L347.726 232.434ZM343.487 238.533C340.874 241.31 336.932 245.252 331.648 250.372L334.431 253.244C339.728 248.113 343.722 244.12 346.4 241.275L343.487 238.533ZM331.648 250.372C326.407 255.449 320.252 260.866 313.177 266.625L315.702 269.727C322.846 263.912 329.09 258.418 334.431 253.244L331.648 250.372ZM313.159 266.64C306.284 272.368 298.747 277.858 290.545 283.107L292.701 286.477C301.033 281.145 308.706 275.557 315.72 269.712L313.159 266.64ZM290.554 283.102C282.559 288.16 274.327 292.316 265.857 295.573L267.293 299.307C276.018 295.951 284.485 291.675 292.693 286.482L290.554 283.102ZM265.857 295.573C257.458 298.804 249.352 300.4 241.527 300.4V304.4C249.905 304.4 258.498 302.69 267.293 299.307L265.857 295.573ZM241.527 300.4C229.68 300.4 220.842 297.05 214.704 290.605L211.807 293.363C218.895 300.806 228.905 304.4 241.527 304.4V300.4ZM214.687 290.587C208.521 284.267 205.335 275.557 205.335 264.208H201.335C201.335 276.337 204.763 286.144 211.824 293.381L214.687 290.587ZM205.335 264.208C205.335 256.353 206.943 246.375 210.226 234.226L206.365 233.182C203.035 245.503 201.335 255.861 201.335 264.208H205.335ZM210.228 234.219C213.525 221.853 217.236 209.237 221.36 196.37L217.551 195.15C213.408 208.075 209.678 220.755 206.363 233.189L210.228 234.219ZM218.062 194.325C212.206 200.014 206.118 206.772 199.796 214.591L202.907 217.105C209.15 209.383 215.131 202.749 220.849 197.195L218.062 194.325ZM199.809 214.574C193.505 222.206 187.12 230.332 180.655 238.952L183.855 241.352C190.286 232.778 196.632 224.701 202.893 217.122L199.809 214.574ZM180.667 238.937C174.217 247.371 167.851 255.722 161.567 263.99L164.752 266.41C171.033 258.145 177.397 249.797 183.844 241.367L180.667 238.937ZM161.563 263.995C155.461 272.075 149.611 279.491 144.012 286.243L147.091 288.797C152.734 281.991 158.622 274.527 164.755 266.405L161.563 263.995ZM144.027 286.225C138.448 292.788 133.398 297.996 128.874 301.873L131.477 304.911C136.212 300.852 141.412 295.478 147.075 288.815L144.027 286.225ZM128.874 301.873C124.336 305.763 120.836 307.344 118.271 307.344V311.344C122.32 311.344 126.755 308.957 131.477 304.911L128.874 301.873Z" fill="#03045E"/>
<g clip-path="url(#clip1_539_819)">
<rect width="146" height="398" transform="translate(262 1)" fill="#FFEFCB"/>
<path d="M96.9033 304.896L95.318 306.115L95.318 306.115L96.9033 304.896ZM96.1593 256.288L94.2145 255.821L94.2122 255.831L94.21 255.84L96.1593 256.288ZM107.815 214.872L105.912 214.258L105.908 214.271L107.815 214.872ZM124.431 167.504L126.302 168.21L126.305 168.204L124.431 167.504ZM143.527 119.392L145.371 120.168L145.373 120.161L143.527 119.392ZM162.871 75.744L161.093 74.8293L161.078 74.8574L161.065 74.8859L162.871 75.744ZM172.295 63.84L173.385 65.5169L173.385 65.5169L172.295 63.84ZM192.879 63.84L191.618 65.3922L191.648 65.4167L191.679 65.44L192.879 63.84ZM192.879 84.92L194.73 85.6791L194.733 85.671L194.736 85.6628L192.879 84.92ZM182.463 110.216L184.308 110.989L184.312 110.979L182.463 110.216ZM168.327 144.936L170.183 145.683L170.186 145.675L168.327 144.936ZM152.951 184.864L154.825 185.564L154.828 185.556L152.951 184.864ZM139.063 225.536L140.974 226.126L140.974 226.126L139.063 225.536ZM129.143 262.736L127.189 262.311L130.747 263.931L129.143 262.736ZM147.743 236.944L146.11 235.79L146.106 235.795L147.743 236.944ZM168.327 208.424L166.721 207.233L166.717 207.238L168.327 208.424ZM189.159 182.136L187.654 180.819L187.646 180.828L187.639 180.837L189.159 182.136ZM208.503 163.04L207.249 161.482L207.249 161.482L208.503 163.04ZM243.967 162.792L242.603 164.254L242.628 164.278L242.654 164.3L243.967 162.792ZM248.679 204.704L250.606 205.242L250.609 205.23L248.679 204.704ZM241.487 227.272L239.602 226.604L239.598 226.616L239.594 226.627L241.487 227.272ZM234.543 249.84L232.614 249.314L232.614 249.314L234.543 249.84ZM260.335 268.192L259.574 266.343L259.561 266.348L260.335 268.192ZM284.391 255.296L285.509 256.955L285.517 256.949L284.391 255.296ZM305.471 239.672L306.736 241.222L306.74 241.218L305.471 239.672ZM321.095 226.528L322.412 228.033L322.44 228.009L322.466 227.984L321.095 226.528ZM328.783 221.32L329.456 223.203L329.514 223.183L329.571 223.158L328.783 221.32ZM344.655 234.96L346.585 235.486L346.59 235.466L346.596 235.445L344.655 234.96ZM328.039 253.808L329.431 255.244L329.431 255.244L328.039 253.808ZM309.439 270.176L308.177 268.625L308.168 268.632L308.159 268.64L309.439 270.176ZM286.623 286.792L287.693 288.482L287.701 288.477L286.623 286.792ZM261.575 299.44L262.293 301.307L261.575 299.44ZM208.255 293.984L209.704 292.605L209.695 292.596L209.687 292.587L208.255 293.984ZM203.295 235.704L205.226 236.226L205.228 236.219L203.295 235.704ZM214.455 197.76L216.36 198.37L213.062 196.325L214.455 197.76ZM196.351 217.848L197.893 219.122L197.9 219.114L197.907 219.105L196.351 217.848ZM177.255 242.152L178.844 243.367L178.85 243.359L178.855 243.352L177.255 242.152ZM158.159 267.2L156.567 265.99L156.563 265.995L158.159 267.2ZM140.551 289.52L142.075 290.815L142.083 290.806L142.091 290.797L140.551 289.52ZM125.175 305.392L123.874 303.873L123.874 303.873L125.175 305.392ZM113.271 309.344C106.022 309.344 101.28 307.306 98.4885 303.677L95.318 306.115C99.1398 311.084 105.31 313.344 113.271 313.344V309.344ZM98.4885 303.677C95.5592 299.869 93.9433 294.093 93.9433 286.048H89.9433C89.9433 294.537 91.6339 301.326 95.318 306.115L98.4885 303.677ZM93.9433 286.048C93.9433 278.659 95.3128 268.905 98.1085 256.736L94.21 255.84C91.3844 268.14 89.9433 278.226 89.9433 286.048H93.9433ZM98.104 256.755C101.067 244.41 104.939 230.65 109.723 215.473L105.908 214.271C101.102 229.515 97.2036 243.366 94.2145 255.821L98.104 256.755ZM109.719 215.486C114.668 200.143 120.196 184.385 126.302 168.21L122.56 166.798C116.432 183.029 110.883 198.849 105.912 214.258L109.719 215.486ZM126.305 168.204C132.413 151.861 138.768 135.849 145.371 120.168L141.684 118.616C135.06 134.348 128.684 150.411 122.558 166.804L126.305 168.204ZM145.373 120.161C151.976 104.314 158.411 89.795 164.678 76.6021L161.065 74.8859C154.766 88.1464 148.305 102.726 141.681 118.623L145.373 120.161ZM164.65 76.6587C167.559 71.0026 170.503 67.3906 173.385 65.5169L171.205 62.1631C167.475 64.588 164.136 68.9121 161.093 74.8293L164.65 76.6587ZM173.385 65.5169C176.365 63.5798 179.624 62.616 183.207 62.616V58.616C178.855 58.616 174.838 59.8015 171.205 62.1631L173.385 65.5169ZM183.207 62.616C186.607 62.616 189.371 63.5662 191.618 65.3922L194.14 62.2878C191.097 59.8151 187.413 58.616 183.207 58.616V62.616ZM191.679 65.44C193.657 66.9233 194.847 69.4396 194.847 73.512H198.847C198.847 68.6563 197.392 64.7247 194.079 62.24L191.679 65.44ZM194.847 73.512C194.847 73.4575 194.839 73.642 194.671 74.2511C194.522 74.7907 194.29 75.5197 193.966 76.4509C193.32 78.3097 192.341 80.8809 191.022 84.1772L194.736 85.6628C196.063 82.3457 197.068 79.709 197.744 77.765C198.082 76.7949 198.345 75.9739 198.527 75.3148C198.69 74.7253 198.847 74.0625 198.847 73.512H194.847ZM191.029 84.1609C188.384 90.607 184.913 99.0376 180.615 109.453L184.312 110.979C188.611 100.562 192.084 92.1289 194.73 85.6791L191.029 84.1609ZM180.619 109.443C176.314 119.707 171.598 131.292 166.469 144.197L170.186 145.675C175.308 132.788 180.015 121.226 184.308 110.989L180.619 109.443ZM166.472 144.189C161.339 156.939 156.207 170.267 151.075 184.172L154.828 185.556C159.947 171.685 165.065 158.394 170.183 145.683L166.472 144.189ZM151.078 184.164C145.939 197.922 141.297 211.516 137.152 224.946L140.974 226.126C145.096 212.772 149.712 199.252 154.825 185.564L151.078 184.164ZM137.152 224.946C133.005 238.382 129.683 250.838 127.189 262.311L131.098 263.161C133.563 251.818 136.855 239.474 140.974 226.126L137.152 224.946ZM130.747 263.931C136.547 256.142 142.758 247.529 149.38 238.093L146.106 235.795C139.502 245.207 133.313 253.788 127.539 261.541L130.747 263.931ZM149.376 238.098C156.148 228.52 163.001 219.024 169.937 209.61L166.717 207.238C159.765 216.672 152.896 226.19 146.11 235.79L149.376 238.098ZM169.934 209.615C177.02 200.058 183.935 191.331 190.68 183.435L187.639 180.837C180.826 188.813 173.854 197.612 166.721 207.233L169.934 209.615ZM190.664 183.453C197.559 175.574 203.923 169.298 209.758 164.597L207.249 161.482C201.18 166.371 194.648 172.826 187.654 180.819L190.664 183.453ZM209.758 164.597C215.584 159.904 220.346 157.848 224.127 157.848V153.848C218.98 153.848 213.326 156.586 207.249 161.482L209.758 164.597ZM224.127 157.848C232.004 157.848 238.09 160.043 242.603 164.254L245.332 161.33C239.924 156.283 232.784 153.848 224.127 153.848V157.848ZM242.654 164.3C247.132 168.201 249.655 175.25 249.655 186.104H253.655C253.655 174.804 251.053 166.311 245.281 161.284L242.654 164.3ZM249.655 186.104C249.655 190.989 248.707 197.002 246.75 204.178L250.609 205.23C252.62 197.857 253.655 191.469 253.655 186.104H249.655ZM246.753 204.166C244.783 211.226 242.4 218.705 239.602 226.604L243.373 227.94C246.196 219.967 248.608 212.4 250.606 205.242L246.753 204.166ZM239.594 226.627C236.936 234.434 234.609 241.996 232.614 249.314L236.473 250.366C238.445 243.135 240.747 235.652 243.381 227.917L239.594 226.627ZM232.614 249.314C230.599 256.7 229.567 263.249 229.567 268.936H233.567C233.567 263.711 234.519 257.53 236.473 250.366L232.614 249.314ZM229.567 268.936C229.567 270.705 229.983 272.403 231.167 273.657C232.372 274.933 234.039 275.4 235.783 275.4V271.4C234.716 271.4 234.276 271.123 234.075 270.911C233.854 270.677 233.567 270.143 233.567 268.936H229.567ZM235.783 275.4C244.178 275.4 252.624 273.6 261.11 270.036L259.561 266.348C251.513 269.728 243.592 271.4 235.783 271.4V275.4ZM261.097 270.041C269.654 266.518 277.792 262.155 285.509 256.955L283.274 253.637C275.78 258.688 267.88 262.922 259.574 266.343L261.097 270.041ZM285.517 256.949C293.328 251.631 300.402 246.389 306.736 241.222L304.207 238.122C297.975 243.206 290.996 248.38 283.266 253.643L285.517 256.949ZM306.74 241.218C313.196 235.921 318.422 231.525 322.412 228.033L319.778 225.023C315.833 228.475 310.642 232.842 304.203 238.126L306.74 241.218ZM322.466 227.984C325.178 225.432 327.507 223.9 329.456 223.203L328.111 219.437C325.431 220.394 322.634 222.333 319.725 225.072L322.466 227.984ZM329.571 223.158C331.701 222.245 333.58 221.832 335.231 221.832V217.832C332.914 217.832 330.494 218.411 327.995 219.482L329.571 223.158ZM335.231 221.832C338.312 221.832 340.256 222.601 341.443 223.788C342.63 224.976 343.399 226.919 343.399 230H347.399C347.399 226.302 346.474 223.162 344.271 220.96C342.069 218.758 338.929 217.832 335.231 217.832V221.832ZM343.399 230C343.399 231.096 343.19 232.573 342.715 234.475L346.596 235.445C347.112 233.379 347.399 231.55 347.399 230H343.399ZM342.726 234.434C342.367 235.749 341.096 237.761 338.487 240.533L341.4 243.275C344.081 240.426 345.951 237.809 346.585 235.486L342.726 234.434ZM338.487 240.533C335.874 243.31 331.932 247.252 326.648 252.372L329.431 255.244C334.728 250.113 338.722 246.12 341.4 243.275L338.487 240.533ZM326.648 252.372C321.407 257.449 315.252 262.866 308.177 268.625L310.702 271.727C317.846 265.912 324.09 260.418 329.431 255.244L326.648 252.372ZM308.159 268.64C301.284 274.368 293.747 279.858 285.545 285.107L287.701 288.477C296.033 283.145 303.706 277.557 310.72 271.712L308.159 268.64ZM285.554 285.102C277.559 290.16 269.327 294.316 260.857 297.573L262.293 301.307C271.018 297.951 279.485 293.675 287.693 288.482L285.554 285.102ZM260.857 297.573C252.458 300.804 244.352 302.4 236.527 302.4V306.4C244.905 306.4 253.498 304.69 262.293 301.307L260.857 297.573ZM236.527 302.4C224.68 302.4 215.842 299.05 209.704 292.605L206.807 295.363C213.895 302.806 223.905 306.4 236.527 306.4V302.4ZM209.687 292.587C203.521 286.267 200.335 277.557 200.335 266.208H196.335C196.335 278.337 199.763 288.144 206.824 295.381L209.687 292.587ZM200.335 266.208C200.335 258.353 201.943 248.375 205.226 236.226L201.365 235.182C198.035 247.503 196.335 257.861 196.335 266.208H200.335ZM205.228 236.219C208.525 223.853 212.236 211.237 216.36 198.37L212.551 197.15C208.408 210.075 204.678 222.755 201.363 235.189L205.228 236.219ZM213.062 196.325C207.206 202.014 201.118 208.772 194.796 216.591L197.907 219.105C204.15 211.383 210.131 204.749 215.849 199.195L213.062 196.325ZM194.809 216.574C188.505 224.206 182.12 232.332 175.655 240.952L178.855 243.352C185.286 234.778 191.632 226.701 197.893 219.122L194.809 216.574ZM175.667 240.937C169.217 249.371 162.851 257.722 156.567 265.99L159.752 268.41C166.033 260.145 172.397 251.797 178.844 243.367L175.667 240.937ZM156.563 265.995C150.461 274.075 144.611 281.491 139.012 288.243L142.091 290.797C147.734 283.991 153.622 276.527 159.755 268.405L156.563 265.995ZM139.027 288.225C133.448 294.788 128.398 299.996 123.874 303.873L126.477 306.911C131.212 302.852 136.412 297.478 142.075 290.815L139.027 288.225ZM123.874 303.873C119.336 307.763 115.836 309.344 113.271 309.344V313.344C117.32 313.344 121.755 310.957 126.477 306.911L123.874 303.873Z" fill="#03045E"/>
</g>
</g>
<defs>
<clipPath id="clip0_539_819">
<rect width="400" height="400" rx="200" fill="white"/>
</clipPath>
<clipPath id="clip1_539_819">
<rect width="146" height="398" fill="white" transform="translate(262 1)"/>
</clipPath>
</defs>
</svg>
